<svg xmlns="http://www.w3.org/2000/svg" version="1.1" xmlns:xlink="http://www.w3.org/1999/xlink" xmlns:svgjs="http://svgjs.dev/svgjs" width="1440" height="560" preserveAspectRatio="none" viewBox="0 0 1440 560"><g mask="url(&quot;#SvgjsMask1143&quot;)" fill="none"><g transform="translate(288, -5.6)" stroke-linecap="round"><path d="M370 157.925 L370 289.175" stroke-width="18.75" stroke="#3a7cc3"></path><path d="M370 317.3 L370 354.8" stroke-width="18.75" stroke="#dd1133"></path><path d="M370 382.925 L370 402.075" stroke-width="18.75" stroke="rgba(27, 45, 244, 1)"></path><path d="M395 198.095 L395 254.345" stroke-width="18.75" stroke="#3a7cc3"></path><path d="M395 282.47 L395 301.22" stroke-width="18.75" stroke="#3a7cc3"></path><path d="M395 329.345 L395 361.895" stroke-width="18.75" stroke="#dd1133"></path><path d="M420 151.545 L420 226.545" stroke-width="18.75" stroke="#3a7cc3"></path><path d="M420 254.67 L420 408.455" stroke-width="18.75" stroke="#3a7cc3"></path><path d="M445 192.625 L445 367.375" stroke-width="18.75" stroke="rgba(27, 45, 244, 1)"></path><path d="M470 214.955 L470 252.455" stroke-width="18.75" stroke="#3a7cc3"></path><path d="M470 280.58000000000004 L470 345.045" stroke-width="18.75" stroke="#3a7cc3"></path><path d="M495 161.165 L495 198.665" stroke-width="18.75" stroke="#dd1133"></path><path d="M495 226.79 L495 398.835" stroke-width="18.75" stroke="#3a7cc3"></path><path d="M520 154.125 L520 247.875" stroke-width="18.75" stroke="rgba(27, 45, 244, 1)"></path><path d="M520 276 L520 332.25" stroke-width="18.75" stroke="rgba(27, 45, 244, 1)"></path><path d="M520 360.375 L520 405.875" stroke-width="18.75" stroke="#3a7cc3"></path><path d="M545 271.025 L545 288.975" stroke-width="18.75" stroke="#3a7cc3"></path><path d="M570 264.315 L570 295.685" stroke-width="18.75" stroke="#dd1133"></path><path d="M595 199.605 L595 237.105" stroke-width="18.75" stroke="rgba(27, 45, 244, 1)"></path><path d="M595 265.23 L595 283.98" stroke-width="18.75" stroke="#dd1133"></path><path d="M595 312.105 L595 360.395" stroke-width="18.75" stroke="#dd1133"></path><path d="M620 192.555 L620 286.305" stroke-width="18.75" stroke="#3a7cc3"></path><path d="M620 314.43 L620 367.445" stroke-width="18.75" stroke="#3a7cc3"></path><path d="M645 214.005 L645 346.005" stroke-width="18.75" stroke="#3a7cc3"></path><path d="M670 262.945 L670 297.055" stroke-width="18.75" stroke="#dd1133"></path><path d="M695 218.565 L695 256.065" stroke-width="18.75" stroke="#3a7cc3"></path><path d="M695 284.19 L695 341.435" stroke-width="18.75" stroke="#dd1133"></path><path d="M720 254.385 L720 305.615" stroke-width="18.75" stroke="#3a7cc3"></path><path d="M745 246.705 L745 313.295" stroke-width="18.75" stroke="#3a7cc3"></path><path d="M770 265.025 L770 294.985" stroke-width="18.75" stroke="rgba(27, 45, 244, 1)"></path><path d="M795 183.275 L795 277.025" stroke-width="18.75" stroke="#dd1133"></path><path d="M795 305.15 L795 376.725" stroke-width="18.75" stroke="#3a7cc3"></path><path d="M820 154.755 L820 304.755" stroke-width="18.75" stroke="#3a7cc3"></path><path d="M820 332.88 L820 351.63" stroke-width="18.75" stroke="rgba(27, 45, 244, 1)"></path><path d="M820 379.755 L820 405.245" stroke-width="18.75" stroke="#3a7cc3"></path><path d="M845 194.185 L845 212.935" stroke-width="18.75" stroke="#dd1133"></path><path d="M845 241.06 L845 278.56" stroke-width="18.75" stroke="rgba(27, 45, 244, 1)"></path><path d="M845 306.685 L845 365.815" stroke-width="18.75" stroke="#dd1133"></path><path d="M870 153.345 L870 265.845" stroke-width="18.75" stroke="#dd1133"></path><path d="M870 293.97 L870 350.22" stroke-width="18.75" stroke="#3a7cc3"></path><path d="M870 378.345 L870 406.655" stroke-width="18.75" stroke="rgba(27, 45, 244, 1)"></path><path d="M895 163.455 L895 238.455" stroke-width="18.75" stroke="rgba(27, 45, 244, 1)"></path><path d="M895 266.58000000000004 L895 396.545" stroke-width="18.75" stroke="rgba(27, 45, 244, 1)"></path><path d="M920 165.565 L920 259.315" stroke-width="18.75" stroke="rgba(27, 45, 244, 1)"></path><path d="M920 287.44 L920 324.94" stroke-width="18.75" stroke="#3a7cc3"></path><path d="M920 353.065 L920 394.435" stroke-width="18.75" stroke="#3a7cc3"></path><path d="M945 246.405 L945 313.595" stroke-width="18.75" stroke="#dd1133"></path><path d="M970 225.455 L970 334.545" stroke-width="18.75" stroke="#3a7cc3"></path><path d="M995 190.755 L995 247.005" stroke-width="18.75" stroke="#dd1133"></path><path d="M995 275.13 L995 293.88" stroke-width="18.75" stroke="#dd1133"></path><path d="M995 322.005 L995 369.245" stroke-width="18.75" stroke="rgba(27, 45, 244, 1)"></path><path d="M1020 191.255 L1020 266.255" stroke-width="18.75" stroke="rgba(27, 45, 244, 1)"></path><path d="M1020 294.38 L1020 313.13" stroke-width="18.75" stroke="rgba(27, 45, 244, 1)"></path><path d="M1020 341.255 L1020 368.745" stroke-width="18.75" stroke="#3a7cc3"></path><path d="M1045 170.885 L1045 283.385" stroke-width="18.75" stroke="#3a7cc3"></path><path d="M1045 311.51 L1045 330.26" stroke-width="18.75" stroke="#3a7cc3"></path><path d="M1045 358.385 L1045 389.115" stroke-width="18.75" stroke="#3a7cc3"></path><path d="M1070 218.935 L1070 341.065" stroke-width="18.75" stroke="#3a7cc3"></path></g></g><defs><mask id="SvgjsMask1143"><rect width="1440" height="560" fill="#ffffff"></rect></mask></defs></svg>